<svg width="24" height="24" viewBox="0 0 24 24" fill="none" 
  xmlns="http://www.w3.org/2000/svg">
  <path d="M0.9375 4.96875H11.8594C12.3772 4.96875 12.7969 4.54903 12.7969 4.03125C12.7969 3.51347 12.3772 3.09375 11.8594 3.09375H0.9375C0.419719 3.09375 0 3.51347 0 4.03125C0 4.54903 0.419719 4.96875 0.9375 4.96875Z" fill="white"/>
  <path d="M17.4844 8.01562C19.0352 8.01562 20.2969 6.75394 20.2969 5.20312V4.96875H23.0625C23.5803 4.96875 24 4.54903 24 4.03125C24 3.51347 23.5803 3.09375 23.0625 3.09375H20.2969V2.8125C20.2969 1.26169 19.0352 0 17.4844 0C15.9336 0 14.6719 1.26169 14.6719 2.8125V5.20312C14.6719 6.75394 15.9336 8.01562 17.4844 8.01562ZM16.5469 2.8125C16.5469 2.29556 16.9674 1.875 17.4844 1.875C18.0013 1.875 18.4219 2.29556 18.4219 2.8125V5.20312C18.4219 5.72006 18.0013 6.14062 17.4844 6.14062C16.9674 6.14062 16.5469 5.72006 16.5469 5.20312V2.8125Z" fill="white"/>
  <path d="M11.8572 19.0781H0.9375C0.419719 19.0781 0 19.4978 0 20.0156C0 20.5334 0.419719 20.9531 0.9375 20.9531H11.8572C12.375 20.9531 12.7947 20.5334 12.7947 20.0156C12.7947 19.4978 12.375 19.0781 11.8572 19.0781Z" fill="white"/>
  <path d="M0.9375 12.9318H3.60938C4.12716 12.9318 4.54688 12.5121 4.54688 11.9943C4.54688 11.4765 4.12716 11.0568 3.60938 11.0568H0.9375C0.419719 11.0568 0 11.4765 0 11.9943C0 12.5121 0.419719 12.9318 0.9375 12.9318Z" fill="white"/>
  <path d="M23.0625 11.0568H12.0469V10.7344C12.0469 9.18356 10.7852 7.92188 9.23438 7.92188C7.68356 7.92188 6.42188 9.18356 6.42188 10.7344V13.1719C6.42188 14.7227 7.68356 15.9844 9.23438 15.9844C10.7852 15.9844 12.0469 14.7227 12.0469 13.1719V12.9318H23.0625C23.5803 12.9318 24 12.5121 24 11.9943C24 11.4765 23.5803 11.0568 23.0625 11.0568ZM10.1719 13.1719C10.1719 13.6888 9.75131 14.1094 9.23438 14.1094C8.71744 14.1094 8.29688 13.6888 8.29688 13.1719V10.7344C8.29688 10.2174 8.71744 9.79688 9.23438 9.79688C9.75131 9.79688 10.1719 10.2174 10.1719 10.7344V13.1719Z" fill="white"/>
  <path d="M23.0625 19.0781H20.2947V18.7969C20.2947 17.2461 19.033 15.9844 17.4822 15.9844C15.9314 15.9844 14.6697 17.2461 14.6697 18.7969V21.1875C14.6697 22.7383 15.9314 24 17.4822 24C19.033 24 20.2947 22.7383 20.2947 21.1875V20.9531H23.0625C23.5803 20.9531 24 20.5334 24 20.0156C24 19.4978 23.5803 19.0781 23.0625 19.0781ZM18.4197 21.1875C18.4197 21.7044 17.9992 22.125 17.4822 22.125C16.9653 22.125 16.5447 21.7044 16.5447 21.1875V18.7969C16.5447 18.2799 16.9653 17.8594 17.4822 17.8594C17.9992 17.8594 18.4197 18.2799 18.4197 18.7969V21.1875Z" fill="white"/>
</svg>
