<svg width="6" height="10" viewBox="0 0 6 10" fill="none" 
  xmlns="http://www.w3.org/2000/svg">
  <path d="M5.71717 4.28966C5.66688 4.23908 5.61121 4.19639 5.55338 4.15926L1.67262 0.28349C1.29386 -0.0944369 0.680019 -0.0946163 0.301083 0.28367C-0.0776729 0.661776 -0.0776729 1.27503 0.301083 1.6535L3.64344 4.99135L0.284202 8.34677C-0.0947339 8.7247 -0.0947339 9.33814 0.284202 9.7166C0.47367 9.90547 0.721684 10 0.969698 10C1.21771 10 1.46627 9.90547 1.65519 9.71624L5.55338 5.82343C5.61121 5.7863 5.66671 5.74379 5.71717 5.69303C5.91113 5.49931 6.00416 5.24497 5.99985 4.99135C6.00433 4.73754 5.91113 4.48284 5.71717 4.28966Z" fill="#540182"/>
</svg>
