<svg width="24" height="24" viewBox="0 0 24 24" fill="none" 
  xmlns="http://www.w3.org/2000/svg">
  <path d="M4.6875 14.0625C5.20527 14.0625 5.625 13.6428 5.625 13.125C5.625 12.6072 5.20527 12.1875 4.6875 12.1875C4.16973 12.1875 3.75 12.6072 3.75 13.125C3.75 13.6428 4.16973 14.0625 4.6875 14.0625Z" fill="white"/>
  <path d="M23.0625 15.7969C23.5803 15.7969 24 15.3772 24 14.8594V10.6875C24 10.3493 23.8178 10.0373 23.5233 9.87108C23.2288 9.70486 22.8675 9.71006 22.578 9.88486L18.7968 12.1672C18.7897 10.8445 18.0937 9.68255 17.0507 9.02025C18.1208 8.07478 18.7969 6.69309 18.7969 5.15625C18.7969 2.31309 16.4838 0 13.6406 0C10.8056 0 8.49783 2.29992 8.4847 5.13197C8.07323 3.19341 6.34842 1.73438 4.28906 1.73438C1.92408 1.73438 0 3.65845 0 6.02344C0 7.29877 0.559687 8.44561 1.44609 9.23194C0.566906 9.9188 0 10.9879 0 12.1875V20.25C0 22.3177 1.68225 24 3.75 24H15.0469C17.1146 24 18.7969 22.3177 18.7969 20.25V20.2106L22.5833 22.462C22.8731 22.6343 23.233 22.6377 23.526 22.4711C23.819 22.3045 24 21.9933 24 21.6562V19.5469C24 19.0291 23.5803 18.6094 23.0625 18.6094C22.5447 18.6094 22.125 19.0291 22.125 19.5469V20.0081L18.3385 17.7567C18.0487 17.5844 17.6888 17.581 17.3959 17.7476C17.1029 17.9143 16.9219 18.2254 16.9219 18.5625V20.25C16.9219 21.2839 16.0807 22.125 15.0469 22.125H3.75C2.71613 22.125 1.875 21.2839 1.875 20.25V12.1875C1.875 11.1536 2.71613 10.3125 3.75 10.3125H15.0469C16.0807 10.3125 16.9219 11.1536 16.9219 12.1875V13.8281C16.9219 14.1663 17.104 14.4783 17.3985 14.6445C17.6931 14.8108 18.0543 14.8056 18.3439 14.6307L22.125 12.3484V14.8594C22.125 15.3772 22.5447 15.7969 23.0625 15.7969ZM4.28906 8.4375C2.95795 8.4375 1.875 7.35455 1.875 6.02344C1.875 4.69233 2.95795 3.60938 4.28906 3.60938C5.62017 3.60938 6.70312 4.69233 6.70312 6.02344C6.70312 7.35455 5.62017 8.4375 4.28906 8.4375ZM7.83234 8.4375C8.28412 7.77647 8.55605 6.9833 8.57677 6.12886C8.74266 6.99422 9.1252 7.7835 9.66605 8.4375H7.83234ZM13.6406 8.4375C11.8313 8.4375 10.3594 6.96553 10.3594 5.15625C10.3594 3.34697 11.8313 1.875 13.6406 1.875C15.4499 1.875 16.9219 3.34697 16.9219 5.15625C16.9219 6.96553 15.4499 8.4375 13.6406 8.4375Z" fill="white"/>
</svg>
