<svg width="28" height="16" viewBox="0 0 28 16" fill="none"
  xmlns="http://www.w3.org/2000/svg">
  <path d="M0 1C0 0.447715 0.447715 0 1 0H27C27.5523 0 28 0.447715 28 1C28 1.55228 27.5523 2 27 2H1C0.447715 2 0 1.55228 0 1Z" fill="white"/>
  <path d="M0 8C0 7.44772 0.447715 7 1 7H27C27.5523 7 28 7.44772 28 8C28 8.55228 27.5523 9 27 9H1C0.447715 9 0 8.55228 0 8Z" fill="white"/>
  <path d="M0 15C0 14.4477 0.447715 14 1 14H27C27.5523 14 28 14.4477 28 15C28 15.5523 27.5523 16 27 16H1C0.447715 16 0 15.5523 0 15Z" fill="white"/>
</svg>
