<svg width="53" height="34" viewBox="0 0 53 34" fill="none" 
  xmlns="http://www.w3.org/2000/svg">
  <path d="M7.77821 11.5475C8.16077 11.5475 8.47377 11.5178 8.71722 11.4583C8.97227 11.3869 9.17514 11.2976 9.32584 11.1906C9.47655 11.0716 9.58089 10.9347 9.63885 10.7801C9.69681 10.6254 9.7258 10.4528 9.7258 10.2625C9.7258 9.85792 9.54031 9.52475 9.16934 9.26299C8.79837 8.98932 8.16077 8.69781 7.25653 8.38845C6.86238 8.24567 6.46822 8.08504 6.07407 7.90656C5.67991 7.71619 5.32633 7.48417 5.01332 7.2105C4.70032 6.92494 4.44528 6.58582 4.2482 6.19317C4.05112 5.78862 3.95258 5.30079 3.95258 4.72966C3.95258 4.15853 4.05691 3.6469 4.26558 3.19476C4.47426 2.73072 4.76988 2.33806 5.15244 2.0168C5.535 1.69554 5.99871 1.45162 6.54357 1.28504C7.08844 1.10656 7.70286 1.01732 8.38683 1.01732C9.19833 1.01732 9.89969 1.10656 10.4909 1.28504C11.0822 1.46352 11.5691 1.65984 11.9516 1.87401L11.1691 4.06929C10.8329 3.89082 10.4561 3.73613 10.0388 3.60525C9.63305 3.46247 9.14036 3.39107 8.56072 3.39107C7.91152 3.39107 7.44202 3.48627 7.1522 3.67664C6.87397 3.85512 6.73486 4.13474 6.73486 4.51549C6.73486 4.74156 6.78702 4.93193 6.89136 5.08661C6.99569 5.24129 7.1406 5.38408 7.32609 5.51496C7.52317 5.63394 7.74343 5.74698 7.98688 5.85407C8.24192 5.94926 8.52015 6.0504 8.82156 6.15748C9.44757 6.39545 9.99243 6.63342 10.4561 6.87139C10.9199 7.09746 11.3024 7.36518 11.6038 7.67454C11.9168 7.9839 12.1487 8.34681 12.2994 8.76326C12.4501 9.1797 12.5255 9.68539 12.5255 10.2803C12.5255 11.4345 12.1313 12.3328 11.343 12.9753C10.5547 13.6059 9.36642 13.9213 7.77821 13.9213C7.24494 13.9213 6.76384 13.8856 6.3349 13.8142C5.90597 13.7547 5.52341 13.6773 5.18721 13.5822C4.86262 13.487 4.57859 13.3858 4.33514 13.2787C4.10329 13.1717 3.90621 13.0705 3.74391 12.9753L4.50904 10.7622C4.86841 10.9645 5.30894 11.1489 5.83062 11.3155C6.36388 11.4702 7.01308 11.5475 7.77821 11.5475Z" fill="white" fill-opacity="0.6"/>
  <path d="M17.0298 13.6714H14.4388V4.28347H17.0298V13.6714ZM17.2733 1.57061C17.2733 2.05845 17.1168 2.44515 16.8037 2.73072C16.5023 3.00438 16.143 3.14121 15.7256 3.14121C15.3083 3.14121 14.9431 3.00438 14.6301 2.73072C14.3287 2.44515 14.178 2.05845 14.178 1.57061C14.178 1.08277 14.3287 0.702012 14.6301 0.428346C14.9431 0.142782 15.3083 0 15.7256 0C16.143 0 16.5023 0.142782 16.8037 0.428346C17.1168 0.702012 17.2733 1.08277 17.2733 1.57061Z" fill="white" fill-opacity="0.6"/>
  <path d="M24.9778 6.63937C24.7459 6.57988 24.4735 6.52039 24.1605 6.4609C23.8475 6.38951 23.5113 6.35381 23.1519 6.35381C22.9896 6.35381 22.7925 6.37165 22.5607 6.40735C22.3404 6.43115 22.1723 6.4609 22.0564 6.49659V13.6714H19.4654V4.7832C19.9291 4.61662 20.474 4.46194 21.1 4.31916C21.7376 4.16448 22.4447 4.08714 23.2215 4.08714C23.3606 4.08714 23.5287 4.09905 23.7257 4.12284C23.9228 4.13474 24.1199 4.15853 24.317 4.19423C24.5141 4.21802 24.7111 4.25372 24.9082 4.30131C25.1053 4.33701 25.2734 4.3846 25.4125 4.44409L24.9778 6.63937Z" fill="white" fill-opacity="0.6"/>
  <path d="M29.3925 13.6714H26.8015V4.28347H29.3925V13.6714ZM29.6359 1.57061C29.6359 2.05845 29.4794 2.44515 29.1664 2.73072C28.865 3.00438 28.5056 3.14121 28.0883 3.14121C27.6709 3.14121 27.3057 3.00438 26.9927 2.73072C26.6913 2.44515 26.5406 2.05845 26.5406 1.57061C26.5406 1.08277 26.6913 0.702012 26.9927 0.428346C27.3057 0.142782 27.6709 0 28.0883 0C28.5056 0 28.865 0.142782 29.1664 0.428346C29.4794 0.702012 29.6359 1.08277 29.6359 1.57061Z" fill="white" fill-opacity="0.6"/>
  <path d="M39.6358 13.3501C39.1953 13.481 38.6272 13.6 37.9316 13.7071C37.2361 13.8261 36.5057 13.8856 35.7406 13.8856C34.9639 13.8856 34.3147 13.7785 33.793 13.5643C33.2829 13.3501 32.8772 13.0527 32.5758 12.6719C32.2743 12.2793 32.0599 11.8152 31.9324 11.2798C31.8048 10.7444 31.7411 10.1554 31.7411 9.51287V4.28347H34.3321V9.1916C34.3321 10.0483 34.4422 10.667 34.6625 11.0478C34.8827 11.4285 35.2943 11.6189 35.8971 11.6189C36.0826 11.6189 36.2797 11.6129 36.4883 11.6011C36.697 11.5773 36.8825 11.5535 37.0448 11.5297V4.28347H39.6358V13.3501Z" fill="white" fill-opacity="0.6"/>
  <path d="M44.6937 11.7617C45.169 11.7617 45.5052 11.7141 45.7023 11.6189C45.8994 11.5237 45.9979 11.3393 45.9979 11.0656C45.9979 10.8514 45.8704 10.667 45.6154 10.5123C45.3603 10.3458 44.972 10.1613 44.4503 9.95905C44.0445 9.80437 43.6736 9.64374 43.3374 9.47716C43.0128 9.31059 42.7345 9.11426 42.5027 8.88819C42.2708 8.65022 42.0911 8.3706 41.9636 8.04934C41.8361 7.72808 41.7723 7.34138 41.7723 6.88923C41.7723 6.00874 42.0911 5.31268 42.7287 4.80104C43.3664 4.28941 44.2416 4.0336 45.3545 4.0336C45.911 4.0336 46.4442 4.08714 46.9543 4.19423C47.4644 4.28941 47.8702 4.39651 48.1716 4.51549L47.7194 6.58583C47.418 6.47874 47.0876 6.38355 46.7283 6.30026C46.3805 6.21697 45.9863 6.17533 45.5458 6.17533C44.7343 6.17533 44.3286 6.40735 44.3286 6.87139C44.3286 6.97848 44.3459 7.07366 44.3807 7.15695C44.4155 7.24024 44.4851 7.32354 44.5894 7.40683C44.6937 7.47822 44.8328 7.56151 45.0067 7.6567C45.1922 7.73999 45.4241 7.83517 45.7023 7.94226C46.2704 8.15643 46.7399 8.37061 47.1108 8.58479C47.4818 8.78706 47.7716 9.01312 47.9803 9.26299C48.2006 9.50096 48.3513 9.76868 48.4324 10.0661C48.5252 10.3636 48.5715 10.7087 48.5715 11.1013C48.5715 12.0294 48.2295 12.7314 47.5456 13.2073C46.8732 13.6833 45.9168 13.9213 44.6763 13.9213C43.8648 13.9213 43.1867 13.8499 42.6418 13.7071C42.1085 13.5643 41.7376 13.4453 41.5289 13.3501L41.9636 11.1906C42.4042 11.369 42.8563 11.5118 43.32 11.6189C43.7837 11.7141 44.2416 11.7617 44.6937 11.7617Z" fill="white" fill-opacity="0.6"/>
  <path d="M0 33.7501V21.3816H8.06859V23.7197H2.71272V26.3076H7.47736V28.6457H2.71272V33.7501H0Z" fill="white" fill-opacity="0.6"/>
  <path d="M17.2794 33.4289C16.8389 33.5598 16.2709 33.6787 15.5753 33.7858C14.8797 33.9048 14.1494 33.9643 13.3843 33.9643C12.6075 33.9643 11.9583 33.8572 11.4367 33.643C10.9266 33.4289 10.5208 33.1314 10.2194 32.7506C9.91801 32.358 9.70354 31.894 9.57602 31.3585C9.4485 30.8231 9.38474 30.2341 9.38474 29.5916V24.3622H11.9757V29.2703C11.9757 30.127 12.0859 30.7458 12.3061 31.1265C12.5264 31.5073 12.9379 31.6976 13.5408 31.6976C13.7262 31.6976 13.9233 31.6917 14.132 31.6798C14.3407 31.656 14.5261 31.6322 14.6884 31.6084V24.3622H17.2794V33.4289Z" fill="white" fill-opacity="0.6"/>
  <path d="M19.6247 22.0241L22.2157 21.5958V24.3622H25.3283V26.5753H22.2157V29.8772C22.2157 30.4364 22.3084 30.8826 22.4939 31.2157C22.691 31.5489 23.0793 31.7155 23.659 31.7155C23.9372 31.7155 24.2212 31.6917 24.511 31.6441C24.8125 31.5846 25.0849 31.5073 25.3283 31.4121L25.6935 33.4824C25.3805 33.6133 25.0327 33.7263 24.6502 33.8215C24.2676 33.9167 23.7981 33.9643 23.2416 33.9643C22.5345 33.9643 21.949 33.8691 21.4853 33.6787C21.0216 33.4765 20.6506 33.2028 20.3724 32.8577C20.0942 32.5008 19.8971 32.0724 19.7812 31.5727C19.6768 31.073 19.6247 30.5197 19.6247 29.9129V22.0241Z" fill="white" fill-opacity="0.6"/>
  <path d="M35.246 33.4289C34.8055 33.5598 34.2374 33.6787 33.5419 33.7858C32.8463 33.9048 32.116 33.9643 31.3508 33.9643C30.5741 33.9643 29.9249 33.8572 29.4033 33.643C28.8932 33.4289 28.4874 33.1314 28.186 32.7506C27.8846 32.358 27.6701 31.894 27.5426 31.3585C27.4151 30.8231 27.3513 30.2341 27.3513 29.5916V24.3622H29.9423V29.2703C29.9423 30.127 30.0524 30.7458 30.2727 31.1265C30.493 31.5073 30.9045 31.6976 31.5073 31.6976C31.6928 31.6976 31.8899 31.6917 32.0986 31.6798C32.3072 31.656 32.4927 31.6322 32.655 31.6084V24.3622H35.246V33.4289Z" fill="white" fill-opacity="0.6"/>
  <path d="M43.1906 26.7181C42.9587 26.6586 42.6863 26.5991 42.3733 26.5396C42.0603 26.4682 41.7241 26.4325 41.3647 26.4325C41.2024 26.4325 41.0053 26.4504 40.7735 26.4861C40.5532 26.5099 40.3851 26.5396 40.2692 26.5753V33.7501H37.6782V24.8619C38.1419 24.6954 38.6868 24.5407 39.3128 24.3979C39.9504 24.2432 40.6576 24.1659 41.4343 24.1659C41.5734 24.1659 41.7415 24.1778 41.9386 24.2016C42.1356 24.2135 42.3327 24.2373 42.5298 24.273C42.7269 24.2968 42.9239 24.3325 43.121 24.3801C43.3181 24.4157 43.4862 24.4633 43.6253 24.5228L43.1906 26.7181Z" fill="white" fill-opacity="0.6"/>
  <path d="M44.4097 29.1276C44.4097 28.2947 44.5315 27.5688 44.7749 26.9501C45.0299 26.3195 45.3603 25.796 45.7661 25.3795C46.1718 24.9631 46.6355 24.6478 47.1572 24.4336C47.6905 24.2194 48.2354 24.1123 48.7918 24.1123C50.0902 24.1123 51.1162 24.5228 51.8697 25.3438C52.6232 26.1529 53 27.3487 53 28.9312C53 29.0859 52.9942 29.2584 52.9826 29.4488C52.971 29.6273 52.9594 29.7879 52.9478 29.9307H47.0703C47.1282 30.478 47.3775 30.9123 47.818 31.2336C48.2585 31.5549 48.8498 31.7155 49.5917 31.7155C50.067 31.7155 50.5307 31.6738 50.9828 31.5906C51.4466 31.4954 51.8233 31.3823 52.1132 31.2514L52.4609 33.411C52.3218 33.4824 52.1363 33.5538 51.9045 33.6252C51.6726 33.6966 51.4118 33.7561 51.122 33.8037C50.8437 33.8632 50.5423 33.9108 50.2177 33.9465C49.8931 33.9822 49.5685 34 49.2439 34C48.4208 34 47.7021 33.8751 47.0877 33.6252C46.4848 33.3753 45.9806 33.0362 45.5748 32.6079C45.1806 32.1676 44.885 31.65 44.688 31.0551C44.5025 30.4602 44.4097 29.8177 44.4097 29.1276ZM50.496 28.1102C50.4844 27.8842 50.4438 27.664 50.3742 27.4499C50.3163 27.2357 50.2177 27.0453 50.0786 26.8787C49.9511 26.7122 49.783 26.5753 49.5743 26.4682C49.3772 26.3612 49.128 26.3076 48.8266 26.3076C48.5368 26.3076 48.2875 26.3612 48.0789 26.4682C47.8702 26.5634 47.6963 26.6943 47.5572 26.8609C47.4181 27.0275 47.3079 27.2238 47.2268 27.4499C47.1572 27.664 47.1051 27.8842 47.0703 28.1102H50.496Z" fill="white" fill-opacity="0.6"/>
</svg>
