<svg width="68" height="102" viewBox="0 0 68 102" fill="none" 
  xmlns="http://www.w3.org/2000/svg">
  <g opacity="0.5">
    <path d="M33.9 48.1417L31.7769 48.5983C32.169 47.4846 32.5885 46.4887 32.8489 45.4594C33.0257 44.7594 33.0096 44.0037 33.0096 43.2735C33.0096 43.1303 32.6303 42.8312 32.5275 42.8694C31.7238 43.1876 30.8833 43.3467 30.287 44.1644C29.2149 45.6312 29.1153 45.7999 30.1262 47.5165L28.9819 46.9962L28.2827 47.9508L28.122 47.8983L28.2474 46.9771L27.3104 47.7201L27.1802 47.6517L27.582 46.7178L26.706 47.0726L26.5743 46.9469L27.2589 46.1212L26.4907 46.021C26.5469 45.943 26.5759 45.8619 26.6225 45.8444C27.725 45.5994 28.2908 44.8039 28.7681 43.8764C29.3966 42.6514 30.1021 41.4662 30.7193 40.2364C30.88 39.9182 30.8174 39.5062 30.8591 39.1371C30.4798 39.1626 30.0893 39.1371 29.7341 39.2262C28.9899 39.4123 28.2731 39.7035 27.5257 39.8753C26.1033 40.1935 25.0345 39.5953 24.2245 38.4641C24.0091 38.1635 23.8195 37.8453 23.5816 37.4778L22.9499 37.936L23.0383 37.123L22.1576 36.5678L22.2074 36.4421L23.265 36.5185C22.8615 34.6094 23.7359 33.273 25.1454 32.2389C26.285 31.4021 27.5804 31.0027 28.924 31.208C28.8903 31.5707 28.7472 31.9191 28.8597 32.1402C29.2664 32.9532 29.4753 33.0089 30.7772 33.0216C31.2272 33.3191 31.4715 33.5307 31.756 33.658C32.3217 33.9078 32.7203 35.0596 32.4278 35.6196C32.3089 35.8471 32.1385 36.135 32.1932 36.3419C32.2806 36.6259 32.4791 36.8636 32.7444 37.0021C32.8634 37.0562 33.2057 36.7666 33.3568 36.5662C33.5079 36.3657 33.4838 36.1128 33.5673 35.89C34.2777 34.0144 35.0139 32.145 35.7034 30.2646C36.1132 29.1605 36.0907 29.1509 34.9656 28.7866C34.8656 28.7336 34.7709 28.6712 34.6828 28.6005L35.57 28.3968L34.6667 27.8702L34.7294 27.6905L35.7998 27.832L34.8644 26.7184L34.9672 26.572L36.2048 27.2975C36.1309 26.7852 36.0778 26.4161 36.0232 26.0455L36.2161 25.958C36.369 26.1593 36.5061 26.3721 36.6259 26.5943C37.2013 27.8798 37.1965 27.883 38.5835 27.6968C38.5144 27.8559 38.4903 28.0659 38.4035 28.0961C37.1081 28.5464 37.084 29.7205 36.875 30.7562C36.5536 32.355 36.3061 33.9698 36.0007 35.5734C35.9316 35.933 35.7114 36.2639 35.6423 36.6219C35.6021 36.8366 35.6423 37.1675 35.7821 37.2932C36.1662 37.6337 36.1036 37.9566 35.8255 38.2589C35.4864 38.6423 35.6423 38.8857 35.9348 39.1976C37.1868 40.5276 38.2444 41.9817 38.6382 43.8112C38.7539 44.3458 38.7989 44.8946 38.9082 45.5819C40.3177 44.7387 41.6887 44.0212 42.9456 43.1446C46.6567 40.5562 50.4112 38.0187 53.9809 35.2489C57.4557 32.5443 60.6605 29.5216 62.9991 25.7384C63.642 24.6979 64.1241 23.6034 64.2189 22.3482C64.3797 20.3357 62.811 19.397 61.4224 19.1854C60.2185 19.0009 58.9858 19.0104 57.7402 18.8593C58.3606 18.7575 58.9777 18.6143 59.6014 18.5602C61.5413 18.4011 63.4877 18.1959 65.3954 18.8195C67.4849 19.502 68.3753 21.0229 67.8545 23.1309C67.3129 25.32 66.0239 27.1082 64.64 28.8391C61.4256 32.8275 57.52 36.0762 53.473 39.1705C48.4676 42.9686 43.1822 46.3906 37.661 49.4081C37.5002 49.4956 37.3588 49.6165 37.1499 49.7628H37.9133C37.8731 51.0562 37.8683 52.3083 37.7719 53.5556C37.7526 53.7926 37.3877 54.0138 37.1643 54.2222C37.0036 54.3685 36.7031 54.4481 36.6564 54.6119C36.1952 56.2029 35.7773 57.8113 35.3433 59.4133C35.0637 60.4474 35.4864 61.2079 36.282 61.8315C36.4797 61.9906 36.6677 62.1497 36.9249 62.3661C36.724 62.4631 36.6227 62.5602 36.5423 62.5443C35.0846 62.2674 33.7763 61.717 32.9502 60.4188C32.8505 60.2597 32.9839 59.7506 33.1302 59.6902C34.0013 59.3338 33.9418 58.5765 33.9965 57.8829C34.0302 57.4692 33.9643 57.0476 33.9306 56.3508C33.1623 57.2847 32.4648 58.0531 31.8621 58.8867C31.1517 59.8683 31.7271 60.8356 32.1417 61.7854L31.9665 61.9079C31.7445 61.8109 31.5347 61.6887 31.3413 61.5436C30.4525 60.7052 29.7968 59.7283 29.5412 58.5208C29.4223 57.9576 29.5284 57.6872 30.2002 57.6808C30.5852 57.6607 30.9447 57.4839 31.1935 57.1924C31.854 56.2713 32.4214 55.2833 33.098 54.2031C31.9312 54.2031 31.7994 53.4553 31.764 52.5358C31.0584 52.8651 30.4397 53.1467 29.8353 53.441C24.8224 55.8592 19.6744 57.9433 14.2901 59.4054C11.3344 60.2008 8.34337 60.9136 5.24462 60.7704C4.12533 60.7194 3.024 60.4727 1.99157 60.0417C0.223613 59.2924 -0.33892 57.7524 0.191468 55.9054C0.790967 53.7958 1.94657 51.9853 3.38022 50.3626C5.17712 48.3278 7.07687 46.3853 8.93323 44.3935L9.13895 44.5812C8.33534 45.4785 7.42564 46.3089 6.73774 47.2858C5.7059 48.7526 4.64833 50.2465 3.92186 51.8692C2.8193 54.3303 4.0633 56.1647 6.76507 56.5656C10.0454 57.0429 13.1779 56.3222 16.2799 55.4774C22.3504 53.8276 28.0851 51.341 33.6381 48.4265C33.7506 48.3676 33.8582 48.2976 33.9692 48.2324L33.9 48.1417Z" fill="white"/>
    <path d="M15.4618 65.1788C15.6696 65.1003 15.8851 65.0433 16.1047 65.0086C17.2507 64.937 18.3966 64.8622 19.5442 64.8368C23.0801 64.7572 26.6048 64.6777 30.1359 64.6427C36.5648 64.5822 42.9895 64.543 49.4099 64.5249C52.1647 64.5249 54.9195 64.5981 57.6743 64.684C60.0225 64.7572 62.369 64.8893 64.7156 65.0022C64.9621 65.0216 65.1932 65.1284 65.3665 65.3029C63.0698 65.392 60.7746 65.5129 58.4779 65.5606C54.5177 65.6434 50.5574 65.6863 46.5972 65.7388C43.0934 65.7834 39.588 65.8565 36.0843 65.8486C32.2826 65.8412 28.4826 65.7881 24.6841 65.6895C21.6143 65.6068 18.5461 65.4222 15.4779 65.2822L15.4618 65.1788Z" fill="white"/>
    <path d="M42.1815 15.0245C42.0978 15.0408 41.997 15.1265 41.9047 15.2591C41.7782 15.4424 41.67 15.6627 41.4145 16.2589C41.2025 16.7532 41.1175 16.9283 41.0069 17.0954C40.878 17.29 40.7887 17.3288 40.4703 17.3294C40.2852 17.3294 40.1202 17.3156 39.6667 17.2631C39.4772 17.2405 39.2597 17.2174 39.0983 17.2024C38.9816 17.1917 38.6143 17.1917 38.5452 17.2024C38.3258 17.2374 38.2244 17.3112 38.2164 17.4414C38.2122 17.5215 38.2427 17.6072 38.3148 17.7179C38.4352 17.9018 38.629 18.1008 39.1197 18.5456C39.7034 19.0743 39.8818 19.2801 39.9081 19.4541C39.9307 19.6005 39.85 19.8645 39.6312 20.3663C39.4088 20.8768 39.3684 20.9688 39.3318 21.0607C39.1778 21.443 39.1167 21.6851 39.1374 21.834C39.1564 21.9729 39.2261 22.0424 39.3556 22.0505C39.5457 22.0636 39.825 21.9448 40.3939 21.61C40.8517 21.3404 40.9348 21.2922 41.0363 21.2372C41.3119 21.087 41.475 21.0257 41.6009 21.0238C41.6749 21.0232 41.6993 21.0301 41.7904 21.0764C41.9524 21.1596 42.1412 21.3141 42.5849 21.727C43.1997 22.3001 43.4435 22.4816 43.6556 22.5254C43.7179 22.5385 43.7613 22.5335 43.8114 22.5085C43.8744 22.4772 43.9092 22.424 43.9361 22.3183C43.9489 22.2676 43.9502 22.2488 43.9502 22.1212C43.9502 22.043 43.9471 21.9541 43.9428 21.921C43.9117 21.6839 43.8774 21.4993 43.7882 21.0857C43.6483 20.4388 43.6177 20.2555 43.6177 20.0553C43.6177 19.954 43.6275 19.8926 43.6513 19.8388C43.713 19.7006 43.9337 19.5323 44.4305 19.2432C44.8345 19.0086 44.9384 18.9473 45.0447 18.8816C45.4964 18.6026 45.6956 18.4055 45.6956 18.2391C45.6956 18.1421 45.6369 18.0683 45.5086 18.0026C45.3252 17.9087 45.0514 17.8549 44.4305 17.7886C43.7876 17.721 43.6153 17.696 43.4301 17.6478C43.1936 17.5853 43.116 17.5221 43.0341 17.3256C42.9626 17.1529 42.9051 16.9321 42.7951 16.3984C42.7126 15.9955 42.6656 15.7897 42.6185 15.6245C42.5482 15.3755 42.4718 15.2066 42.3863 15.109C42.3288 15.0433 42.2512 15.0114 42.1815 15.0245Z" fill="white"/>
    <path d="M42.8184 9.572C42.7844 9.54716 42.7573 9.48758 42.7437 9.40873C42.7254 9.29998 42.7229 9.1785 42.7327 8.85746C42.7408 8.59127 42.7393 8.49487 42.7246 8.39675C42.7075 8.28243 42.6758 8.24633 42.5342 8.17933C42.4517 8.14053 42.3753 8.11213 42.1624 8.04069C42.0734 8.0111 41.9717 7.9759 41.8967 7.94883C41.8425 7.92914 41.6789 7.85218 41.6504 7.83293C41.5599 7.77124 41.53 7.71686 41.5535 7.65681C41.5682 7.61998 41.5996 7.58793 41.6546 7.55336C41.7464 7.49606 41.874 7.44739 42.1848 7.35063C42.5544 7.23573 42.6766 7.18077 42.7243 7.10824C42.7648 7.0473 42.7836 6.91194 42.7902 6.64097C42.797 6.3653 42.7981 6.31558 42.8008 6.26664C42.8115 6.06286 42.8345 5.94142 42.8746 5.87896C42.9119 5.82062 42.9573 5.80406 43.0167 5.82756C43.1041 5.86149 43.2038 5.97334 43.3879 6.24274C43.5358 6.45964 43.5628 6.49867 43.5966 6.54463C43.6882 6.66975 43.7482 6.73145 43.8039 6.75867C43.8367 6.77445 43.849 6.77648 43.8992 6.77479C43.9886 6.77139 44.1047 6.74163 44.388 6.64933C44.7807 6.52103 44.9269 6.49072 45.0304 6.51551C45.0609 6.52268 45.0792 6.53401 45.0964 6.55574C45.1179 6.58297 45.1224 6.61413 45.1124 6.6672C45.1077 6.69263 45.1043 6.7013 45.0778 6.75857C45.0616 6.79366 45.0418 6.83288 45.0331 6.84686C44.97 6.94671 44.9165 7.02235 44.791 7.1892C44.5945 7.45012 44.5429 7.52597 44.5013 7.61579C44.4803 7.66127 44.472 7.69082 44.4714 7.71996C44.4702 7.79493 44.5336 7.91667 44.695 8.15046C44.8262 8.34037 44.8598 8.38965 44.8935 8.44141C45.0368 8.66123 45.0847 8.7914 45.0502 8.86607C45.0301 8.90958 44.9886 8.93041 44.9179 8.93299C44.8167 8.93668 44.6836 8.90345 44.3933 8.8031C44.0929 8.6987 44.011 8.67382 43.9185 8.65663C43.8002 8.63514 43.7525 8.64723 43.6753 8.71821C43.6076 8.7807 43.5362 8.86775 43.3766 9.08415C43.2563 9.24763 43.1926 9.33012 43.1374 9.39437C43.0545 9.49136 42.9854 9.55115 42.9271 9.57701C42.8878 9.59445 42.8467 9.5925 42.8184 9.572Z" fill="white"/>
    <path d="M51.0209 12.4208C51.0071 12.4036 51.0013 12.3699 51.005 12.3282C51.0102 12.2709 51.0252 12.2092 51.073 12.0487C51.1125 11.9155 51.1246 11.8667 51.1304 11.8152C51.137 11.7552 51.1258 11.7326 51.0632 11.6794C51.0267 11.6485 50.9919 11.6237 50.894 11.5585C50.853 11.5314 50.8063 11.4997 50.772 11.4758C50.7473 11.4584 50.675 11.3972 50.6631 11.3836C50.6257 11.3401 50.6178 11.3085 50.6377 11.2815C50.65 11.2649 50.6702 11.253 50.7026 11.2431C50.7566 11.2268 50.8275 11.2198 50.9973 11.2136C51.1993 11.2063 51.2683 11.1953 51.3021 11.1652C51.3307 11.14 51.3582 11.0744 51.3977 10.9386C51.4379 10.8005 51.4451 10.7755 51.453 10.7512C51.4856 10.6499 51.5134 10.5918 51.542 10.5658C51.5686 10.5415 51.5938 10.5394 51.6206 10.5594C51.6602 10.5884 51.6957 10.6585 51.7526 10.8196C51.7984 10.9493 51.8069 10.9727 51.8178 11.0005C51.8474 11.0762 51.8694 11.1155 51.8939 11.1369C51.9084 11.1493 51.9143 11.1521 51.9399 11.1581C51.9855 11.1686 52.0481 11.1695 52.2034 11.1618C52.4188 11.1509 52.4967 11.1556 52.5457 11.1823C52.5602 11.1901 52.5679 11.1984 52.5736 11.2117C52.5809 11.2284 52.579 11.2447 52.5669 11.2701C52.5611 11.2823 52.5582 11.2862 52.5372 11.3114C52.5243 11.3269 52.5091 11.344 52.5028 11.3498C52.4576 11.3915 52.4205 11.4224 52.3349 11.4893C52.2009 11.594 52.1647 11.6252 52.1317 11.6648C52.115 11.6848 52.1069 11.6986 52.1027 11.7132C52.0921 11.7509 52.1079 11.821 52.1582 11.961C52.1991 12.0748 52.2095 12.1042 52.2196 12.135C52.2626 12.2655 52.2695 12.3377 52.2421 12.3706C52.2261 12.3898 52.2024 12.3946 52.1663 12.3862C52.1147 12.3742 52.052 12.3392 51.9188 12.2488C51.781 12.155 51.7429 12.1312 51.6985 12.1099C51.6417 12.0828 51.616 12.0824 51.5675 12.1076C51.525 12.1299 51.4773 12.164 51.3679 12.2512C51.2853 12.3172 51.2421 12.3501 51.2057 12.3749C51.1509 12.4125 51.108 12.4332 51.0751 12.4382C51.053 12.4416 51.0324 12.435 51.0209 12.4208Z" fill="white"/>
    <path d="M37.3863 1.7698C37.3935 1.73243 37.4314 1.68743 37.4901 1.64624C37.5713 1.58978 37.6687 1.54151 37.9326 1.42749C38.1514 1.33285 38.2289 1.29494 38.3028 1.24557C38.389 1.18802 38.4061 1.1482 38.4064 1.00609C38.4064 0.923446 38.4003 0.849803 38.3771 0.647419C38.3671 0.562866 38.3568 0.465766 38.3502 0.393759C38.3455 0.341663 38.3455 0.177738 38.3502 0.146917C38.3657 0.048998 38.3984 0.00372093 38.456 0.000175161C38.4914 -0.00173408 38.5294 0.0119035 38.5784 0.0440885C38.6598 0.0978209 38.7478 0.184284 38.9447 0.403305C39.1787 0.663785 39.2698 0.743429 39.3468 0.755157C39.4116 0.765249 39.5284 0.729245 39.7505 0.6316C39.9765 0.532317 40.0172 0.514316 40.0579 0.49795C40.2271 0.429216 40.3342 0.401941 40.4001 0.411215C40.4616 0.41967 40.4923 0.450764 40.4959 0.508588C40.5018 0.593414 40.4491 0.718063 40.301 0.971996C40.1817 1.17629 40.1603 1.21338 40.136 1.25866C40.0695 1.38167 40.0424 1.4545 40.0415 1.51068C40.0413 1.54369 40.0443 1.5546 40.0648 1.59524C40.1016 1.66752 40.17 1.7518 40.3528 1.94982C40.6064 2.22421 40.6867 2.33304 40.7061 2.42768C40.7119 2.4555 40.7097 2.47487 40.6986 2.49723C40.6848 2.52533 40.6613 2.54087 40.6145 2.55288C40.592 2.5586 40.5837 2.55915 40.5272 2.55915C40.4926 2.55915 40.4533 2.55779 40.4386 2.55588C40.3337 2.54197 40.252 2.52669 40.069 2.48687C39.7826 2.42441 39.7015 2.41077 39.6129 2.41077C39.568 2.41077 39.5409 2.41514 39.5171 2.42577C39.4559 2.45332 39.3814 2.55178 39.2535 2.77353C39.1496 2.95382 39.1225 3.00019 39.0934 3.04765C38.9699 3.24922 38.8827 3.33813 38.809 3.33813C38.7661 3.33813 38.7334 3.31195 38.7044 3.25467C38.6628 3.17284 38.639 3.05065 38.6097 2.77353C38.5798 2.4866 38.5687 2.40968 38.5474 2.32704C38.5197 2.22148 38.4917 2.18684 38.4047 2.15029C38.3283 2.11838 38.2306 2.09274 37.9944 2.04364C37.816 2.00682 37.7249 1.98582 37.6518 1.96482C37.5416 1.93345 37.4669 1.89936 37.4237 1.86117C37.3946 1.83553 37.3805 1.80089 37.3863 1.7698Z" fill="white"/>
    <path d="M52.4372 24.6765C52.386 24.6757 52.3176 24.6354 52.2493 24.5664C52.1555 24.4708 52.0688 24.3515 51.856 24.0244C51.6794 23.7534 51.611 23.6583 51.5284 23.5708C51.432 23.4688 51.3752 23.4552 51.1871 23.4883C51.0777 23.5077 50.9816 23.5333 50.7191 23.6121C50.6095 23.6454 50.4834 23.682 50.3896 23.7079C50.3218 23.7264 50.1048 23.765 50.0629 23.766C49.9296 23.7683 49.862 23.7351 49.8438 23.6587C49.833 23.6116 49.8421 23.5575 49.8733 23.4842C49.9253 23.3624 50.0191 23.2239 50.2629 22.9083C50.5529 22.5332 50.637 22.3922 50.6345 22.2862C50.6326 22.197 50.5576 22.0487 50.3763 21.7739C50.1919 21.4942 50.1585 21.4439 50.1273 21.3932C49.9966 21.1824 49.9354 21.0451 49.9322 20.9546C49.929 20.8701 49.963 20.8216 50.0387 20.8032C50.1496 20.7754 50.327 20.8166 50.6978 20.9555C50.9963 21.0674 51.0504 21.0873 51.116 21.1093C51.2944 21.1695 51.3972 21.1887 51.4718 21.1766C51.5155 21.1692 51.5293 21.1625 51.5783 21.1255C51.6653 21.0591 51.7608 20.9475 51.9801 20.6558C52.2839 20.251 52.4092 20.1177 52.5299 20.0694C52.5654 20.055 52.5915 20.0534 52.6237 20.063C52.6642 20.075 52.6903 20.1029 52.7171 20.1628C52.73 20.1915 52.7326 20.2026 52.7459 20.2783C52.754 20.3247 52.7614 20.3778 52.7623 20.3979C52.7685 20.5419 52.7674 20.6551 52.7576 20.9099C52.742 21.3086 52.743 21.4206 52.7638 21.5395C52.7743 21.5996 52.7864 21.635 52.8061 21.6644C52.8569 21.74 53.0047 21.8167 53.3283 21.9361C53.5913 22.0329 53.659 22.0584 53.7286 22.0862C54.0244 22.2043 54.1626 22.3004 54.1798 22.3992C54.1899 22.4567 54.1629 22.5067 54.0939 22.5592C53.9953 22.6342 53.8391 22.6949 53.4792 22.7995C53.1063 22.9072 53.0071 22.9401 52.9027 22.9882C52.7694 23.0502 52.7301 23.0959 52.7021 23.2211C52.6778 23.3311 52.6668 23.4682 52.6572 23.7965C52.6502 24.0444 52.6438 24.1715 52.6331 24.2745C52.6174 24.4297 52.5898 24.538 52.5494 24.6049C52.5222 24.6499 52.4797 24.677 52.4372 24.6765Z" fill="white"/>
    <path d="M45.0861 29.184C45.0645 29.1875 45.0326 29.1757 44.9987 29.1517C44.9521 29.1184 44.9066 29.0745 44.7927 28.9525C44.6982 28.8513 44.6623 28.8163 44.621 28.7856C44.5728 28.7498 44.5478 28.7483 44.4708 28.7764C44.4261 28.7928 44.3874 28.8108 44.2825 28.8638C44.2387 28.8861 44.1881 28.911 44.1505 28.9289C44.1232 28.9419 44.0345 28.9745 44.0168 28.978C43.9608 28.989 43.9298 28.9801 43.9165 28.9492C43.9084 28.9301 43.9083 28.9066 43.916 28.8733C43.929 28.818 43.9584 28.7525 44.038 28.601C44.1327 28.4209 44.1578 28.3551 44.1489 28.3105C44.1416 28.273 44.099 28.2161 44.0022 28.1137C43.9037 28.0095 43.8859 27.9908 43.869 27.9717C43.7983 27.8926 43.7623 27.8392 43.7543 27.8012C43.7467 27.7658 43.7575 27.7428 43.7881 27.7293C43.8328 27.7093 43.9107 27.7134 44.0775 27.7441C44.2117 27.769 44.236 27.7733 44.2653 27.7777C44.3451 27.7896 44.3899 27.7901 44.4205 27.7793C44.4384 27.7729 44.4437 27.7691 44.4616 27.7498C44.4935 27.7152 44.5256 27.6609 44.5966 27.5214C44.695 27.3277 44.738 27.262 44.7854 27.2326C44.7993 27.2239 44.8102 27.2212 44.8245 27.2229C44.8425 27.2249 44.8555 27.2347 44.8713 27.258C44.8788 27.2691 44.8808 27.2736 44.892 27.3046C44.8988 27.3235 44.9058 27.3454 44.9077 27.3538C44.9209 27.4141 44.9288 27.462 44.9435 27.5703C44.9663 27.7397 44.975 27.7869 44.9925 27.8355C45.0014 27.8601 45.0092 27.8741 45.0196 27.8851C45.0466 27.9132 45.1147 27.9344 45.26 27.9605C45.3782 27.9816 45.4087 27.9873 45.4401 27.9938C45.5737 28.0215 45.639 28.0516 45.6536 28.092C45.6621 28.1156 45.6544 28.1387 45.6292 28.166C45.5931 28.2051 45.5316 28.2424 45.3874 28.3136C45.238 28.387 45.1986 28.4084 45.158 28.4365C45.1064 28.4727 45.0932 28.4949 45.0906 28.5499C45.0884 28.5981 45.0939 28.6568 45.114 28.7961C45.1294 28.9012 45.136 28.9554 45.1391 28.9996C45.144 29.0663 45.1403 29.1141 45.1282 29.1454C45.12 29.1664 45.1041 29.1811 45.0861 29.184Z" fill="white"/>
    <path d="M33.1664 19.0223C33.1345 19.0402 33.0778 19.04 33.0112 19.0219C32.9193 18.9966 32.8234 18.954 32.576 18.8283C32.3708 18.7243 32.2949 18.6901 32.2128 18.6658C32.1171 18.6374 32.0771 18.6494 31.9724 18.7377C31.9117 18.7891 31.8613 18.8395 31.7268 18.9829C31.6708 19.043 31.6057 19.1111 31.5569 19.1608C31.5215 19.1968 31.4009 19.2989 31.3753 19.3145C31.2937 19.3639 31.2402 19.3678 31.2018 19.3271C31.1785 19.3019 31.165 19.2651 31.1583 19.2085C31.1474 19.1144 31.1564 18.995 31.1955 18.7119C31.242 18.3754 31.2442 18.2579 31.2051 18.1932C31.1723 18.1387 31.0734 18.074 30.864 17.9693C30.6509 17.8628 30.6124 17.8436 30.5752 17.8235C30.4198 17.7402 30.3333 17.6774 30.2993 17.6225C30.2674 17.5714 30.2712 17.5292 30.3115 17.4905C30.3703 17.4333 30.4946 17.3949 30.7732 17.3472C30.9974 17.3089 31.0379 17.3017 31.0863 17.2917C31.218 17.2646 31.2884 17.2395 31.3302 17.2051C31.3546 17.1848 31.3608 17.1757 31.378 17.1351C31.4083 17.0627 31.4279 16.9592 31.4603 16.6998C31.5049 16.3399 31.5352 16.2123 31.5928 16.139C31.6097 16.1173 31.6253 16.1069 31.6486 16.1012C31.6778 16.094 31.7039 16.1019 31.7417 16.1293C31.7598 16.1424 31.7653 16.1483 31.8004 16.1904C31.8218 16.2162 31.8452 16.2463 31.8529 16.2584C31.9077 16.3453 31.9471 16.4157 32.0312 16.5769C32.1627 16.8291 32.203 16.8981 32.2579 16.9641C32.2857 16.9975 32.3057 17.015 32.3283 17.0261C32.3865 17.0546 32.5051 17.0488 32.7475 17.006C32.9444 16.9712 32.9954 16.9625 33.0483 16.9546C33.2731 16.9211 33.3925 16.9308 33.4382 16.9857C33.4648 17.0176 33.4658 17.0583 33.4417 17.1156C33.4072 17.1975 33.3321 17.2913 33.1465 17.4858C32.954 17.6867 32.9042 17.7428 32.8567 17.8102C32.7962 17.8965 32.7881 17.939 32.8151 18.0265C32.839 18.1033 32.8807 18.1921 32.991 18.3987C33.0744 18.5545 33.1154 18.6355 33.1453 18.703C33.1905 18.8047 33.2118 18.8816 33.2104 18.9376C33.2096 18.9752 33.1929 19.0073 33.1664 19.0223Z" fill="white"/>
    <path d="M24.1583 26.8999C24.1381 26.8407 24.1552 26.7451 24.2049 26.6378C24.274 26.4902 24.3729 26.3408 24.6545 25.96C24.8878 25.6442 24.9669 25.526 25.0315 25.3945C25.1068 25.2412 25.0987 25.1702 24.9831 24.9673C24.9157 24.8495 24.8469 24.7495 24.6487 24.4801C24.5656 24.3678 24.4718 24.2378 24.4036 24.1406C24.3544 24.0702 24.2206 23.8364 24.2021 23.7885C24.1442 23.6361 24.1536 23.5445 24.2325 23.4918C24.2813 23.4598 24.3462 23.4479 24.4421 23.4532C24.6015 23.4626 24.7971 23.5131 25.2553 23.6626C25.8 23.8406 25.9943 23.8789 26.1132 23.832C26.2134 23.7928 26.3499 23.6448 26.5854 23.322C26.8251 22.9936 26.8682 22.9342 26.9127 22.8772C27.0967 22.6393 27.2266 22.5118 27.3277 22.4706C27.4219 22.4318 27.4909 22.4507 27.5432 22.5302C27.6207 22.6464 27.6477 22.8676 27.6447 23.3523C27.642 23.7423 27.642 23.8128 27.6443 23.8975C27.6504 24.1279 27.6713 24.2542 27.716 24.335C27.7425 24.3823 27.7558 24.3953 27.818 24.4364C27.9293 24.509 28.0952 24.5726 28.5162 24.7039C29.1002 24.8855 29.303 24.9743 29.4077 25.0933C29.4387 25.1281 29.4514 25.1576 29.4539 25.1986C29.4572 25.2501 29.4364 25.2918 29.3798 25.3476C29.3527 25.3743 29.3413 25.3819 29.2611 25.4286C29.212 25.4573 29.1551 25.4878 29.1327 25.4972C28.9723 25.5642 28.8439 25.6099 28.5516 25.7045C28.0942 25.8521 27.9679 25.8998 27.8421 25.973C27.7784 26.0101 27.7435 26.0388 27.7184 26.0736C27.654 26.1635 27.6286 26.3655 27.628 26.7875C27.6277 27.1305 27.627 27.2191 27.6245 27.3108C27.6137 27.7003 27.5624 27.8993 27.4579 27.9602C27.397 27.9957 27.3292 27.9853 27.2412 27.9277C27.1155 27.8453 26.9819 27.6908 26.7141 27.3198C26.4375 26.9354 26.359 26.8348 26.2613 26.7346C26.1358 26.607 26.0678 26.5807 25.9146 26.6005C25.78 26.6181 25.6204 26.6624 25.245 26.7877C24.9618 26.8826 24.8154 26.928 24.6945 26.9585C24.5124 27.0048 24.3785 27.018 24.286 26.9993C24.2238 26.9868 24.1755 26.9491 24.1583 26.8999Z" fill="white"/>
    <path d="M25.8305 15.1392C25.8215 15.113 25.8291 15.0709 25.851 15.0235C25.8815 14.9584 25.9252 14.8925 26.0494 14.7245C26.1523 14.5852 26.1872 14.533 26.2157 14.475C26.2489 14.4074 26.2454 14.3761 26.1944 14.2866C26.1646 14.2346 26.1343 14.1904 26.0468 14.0716C26.0101 14.022 25.9688 13.9647 25.9387 13.9218C25.917 13.8907 25.858 13.7876 25.8498 13.7665C25.8243 13.6992 25.8284 13.6588 25.8632 13.6356C25.8847 13.6215 25.9134 13.6162 25.9557 13.6186C26.026 13.6227 26.1123 13.645 26.3144 13.7109C26.5548 13.7895 26.6405 13.8064 26.6929 13.7857C26.7371 13.7684 26.7973 13.7031 26.9013 13.5607C27.007 13.4158 27.026 13.3896 27.0456 13.3645C27.1268 13.2595 27.1841 13.2032 27.2287 13.185C27.2703 13.1679 27.3007 13.1763 27.3238 13.2114C27.358 13.2626 27.3699 13.3602 27.3686 13.574C27.3674 13.7461 27.3674 13.7772 27.3684 13.8146C27.3711 13.9162 27.3803 13.9719 27.4 14.0076C27.4118 14.0285 27.4176 14.0342 27.4451 14.0523C27.4941 14.0843 27.5673 14.1124 27.7531 14.1703C28.0107 14.2505 28.1002 14.2896 28.1464 14.3421C28.1601 14.3575 28.1656 14.3705 28.1668 14.3886C28.1682 14.4113 28.1591 14.4297 28.1341 14.4543C28.1221 14.4661 28.1171 14.4695 28.0817 14.4901C28.06 14.5027 28.0349 14.5162 28.025 14.5203C27.9543 14.5499 27.8977 14.5701 27.7687 14.6118C27.5669 14.6769 27.5112 14.6979 27.4557 14.7302C27.4276 14.7466 27.4122 14.7592 27.4011 14.7746C27.3727 14.8143 27.3615 14.9034 27.3612 15.0896C27.3611 15.2409 27.3608 15.28 27.3597 15.3204C27.3549 15.4923 27.3323 15.5801 27.2862 15.6069C27.2593 15.6226 27.2294 15.618 27.1906 15.5926C27.1351 15.5563 27.0762 15.4881 26.958 15.3244C26.836 15.1548 26.8014 15.1104 26.7582 15.0662C26.7029 15.0099 26.6729 14.9983 26.6053 15.007C26.5459 15.0148 26.4755 15.0344 26.3099 15.0896C26.185 15.1315 26.1204 15.1515 26.067 15.165C25.9867 15.1855 25.9276 15.1913 25.8868 15.183C25.8594 15.1775 25.838 15.1608 25.8305 15.1392Z" fill="white"/>
    <path d="M18.7378 21.9269C18.7235 21.885 18.7356 21.8176 18.7707 21.7419C18.8194 21.6377 18.8893 21.5322 19.088 21.2634C19.2527 21.0405 19.3085 20.9571 19.3542 20.8642C19.4073 20.756 19.4016 20.7059 19.32 20.5627C19.2724 20.4795 19.2238 20.4089 19.0839 20.2188C19.0252 20.1395 18.959 20.0477 18.9109 19.9791C18.8762 19.9294 18.7817 19.7644 18.7687 19.7306C18.7278 19.623 18.7345 19.5583 18.7901 19.5211C18.8246 19.4985 18.8704 19.4901 18.9381 19.4939C19.0506 19.5005 19.1886 19.5361 19.5121 19.6417C19.8966 19.7674 20.0338 19.7944 20.1177 19.7613C20.1884 19.7336 20.2848 19.6292 20.451 19.4013C20.6202 19.1694 20.6507 19.1276 20.682 19.0873C20.8119 18.9194 20.9036 18.8294 20.975 18.8003C21.0414 18.7729 21.0902 18.7863 21.1271 18.8424C21.1818 18.9244 21.2009 19.0806 21.1987 19.4226C21.1968 19.6979 21.1968 19.7477 21.1985 19.8075C21.2028 19.9701 21.2175 20.0593 21.2491 20.1163C21.2678 20.1497 21.2771 20.1589 21.3211 20.1879C21.3996 20.2392 21.5167 20.2841 21.8139 20.3768C22.2261 20.5049 22.3693 20.5676 22.4433 20.6516C22.4651 20.6762 22.474 20.697 22.4758 20.726C22.4781 20.7623 22.4635 20.7917 22.4235 20.8311C22.4044 20.85 22.3964 20.8554 22.3398 20.8883C22.3051 20.9085 22.2649 20.9301 22.2491 20.9367C22.1359 20.984 22.0453 21.0163 21.8389 21.083C21.516 21.1873 21.4269 21.2209 21.3381 21.2726C21.2932 21.2988 21.2685 21.319 21.2507 21.3436C21.2053 21.4071 21.1874 21.5497 21.1869 21.8475C21.1868 22.0896 21.1863 22.1521 21.1845 22.2169C21.1769 22.4919 21.1407 22.6323 21.0669 22.6753C21.0239 22.7003 20.9761 22.693 20.9139 22.6524C20.8252 22.5942 20.7309 22.4851 20.5419 22.2233C20.3466 21.9519 20.2912 21.8809 20.2222 21.8102C20.1336 21.7201 20.0857 21.7015 19.9775 21.7155C19.8825 21.728 19.7698 21.7592 19.5048 21.8476C19.305 21.9146 19.2016 21.9467 19.1162 21.9682C18.9877 22.0009 18.8932 22.0102 18.8279 21.997C18.784 21.9882 18.7499 21.9615 18.7378 21.9269Z" fill="white"/>
    <path d="M11.9432 27.8915C11.9055 27.8688 11.8718 27.8093 11.8505 27.7285C11.8214 27.6171 11.8077 27.4909 11.7887 27.1562C11.7728 26.8786 11.7625 26.7785 11.7383 26.6778C11.71 26.5604 11.6737 26.5258 11.52 26.469C11.4305 26.4361 11.3483 26.4135 11.12 26.3586C11.0245 26.3359 10.9153 26.3085 10.8347 26.2872C10.7765 26.2716 10.599 26.2065 10.5675 26.189C10.4676 26.1331 10.4315 26.0793 10.4505 26.0147C10.4624 25.975 10.4922 25.9389 10.5464 25.8979C10.6368 25.83 10.7653 25.7677 11.0803 25.6389C11.455 25.4858 11.5772 25.4175 11.6204 25.3377C11.657 25.2707 11.6642 25.1282 11.6464 24.8458C11.6283 24.5585 11.6249 24.5067 11.6233 24.4555C11.6159 24.2426 11.6287 24.1142 11.6648 24.0456C11.6983 23.9816 11.7442 23.9602 11.8082 23.9793C11.9023 24.0066 12.0165 24.1139 12.2328 24.3773C12.4067 24.5894 12.4385 24.6276 12.4778 24.6723C12.5847 24.7941 12.6528 24.8528 12.7133 24.8761C12.749 24.8895 12.762 24.8905 12.8141 24.8842C12.9069 24.8725 13.0252 24.831 13.312 24.7093C13.7094 24.5401 13.859 24.4953 13.9692 24.5117C14.0016 24.5164 14.0217 24.5265 14.0415 24.5475C14.0665 24.5739 14.074 24.6059 14.0684 24.662C14.0658 24.6889 14.0631 24.6982 14.0407 24.7602C14.027 24.7981 14.01 24.8407 14.0021 24.856C13.9455 24.9656 13.8967 25.0492 13.7811 25.2341C13.6002 25.5233 13.5533 25.6069 13.5182 25.7041C13.5005 25.7533 13.4945 25.7848 13.4966 25.8151C13.5022 25.8932 13.5793 26.014 13.7688 26.2425C13.9229 26.4281 13.9624 26.4763 14.0022 26.5271C14.1716 26.7427 14.2334 26.8737 14.2042 26.9545C14.1872 27.0015 14.1459 27.027 14.0724 27.0361C13.9674 27.0491 13.8257 27.0267 13.514 26.9487C13.1915 26.8674 13.1039 26.849 13.0059 26.8395C12.8807 26.8279 12.8321 26.8448 12.7581 26.9257C12.6933 26.9968 12.6269 27.0938 12.4803 27.3334C12.3698 27.5144 12.3111 27.6059 12.2594 27.6778C12.1818 27.7862 12.1153 27.8546 12.0569 27.8868C12.0176 27.9085 11.9745 27.9102 11.9432 27.8915Z" fill="white"/>
    <path d="M17.7958 15.372C17.7711 15.3599 17.7469 15.3247 17.7293 15.2756C17.7052 15.2078 17.6899 15.1301 17.6599 14.9227C17.635 14.7507 17.6232 14.689 17.6027 14.6276C17.5788 14.5561 17.5543 14.5365 17.4555 14.5096C17.398 14.494 17.3456 14.4845 17.2005 14.4628C17.1398 14.454 17.0704 14.4429 17.019 14.4341C16.9819 14.4276 16.8679 14.3968 16.8473 14.3876C16.7821 14.3583 16.7568 14.3268 16.7651 14.2855C16.7704 14.2602 16.787 14.236 16.8185 14.2075C16.8711 14.1603 16.9478 14.1145 17.137 14.0169C17.3619 13.901 17.4344 13.8518 17.4569 13.7997C17.4761 13.756 17.4729 13.6669 17.4466 13.492C17.4198 13.3141 17.4149 13.2821 17.4111 13.2503C17.395 13.1181 17.3961 13.0375 17.4149 12.9928C17.4322 12.9511 17.4596 12.9353 17.5005 12.9436C17.5606 12.9555 17.6375 13.016 17.7864 13.1681C17.9061 13.2906 17.9279 13.3126 17.9549 13.3383C18.028 13.4083 18.0736 13.4411 18.1125 13.4522C18.1354 13.4586 18.1436 13.4585 18.1757 13.4517C18.2328 13.4394 18.3043 13.407 18.4762 13.3155C18.7145 13.1883 18.8053 13.1522 18.8747 13.1563C18.8952 13.1575 18.9082 13.1627 18.9217 13.1747C18.9387 13.1897 18.9451 13.2092 18.9447 13.2445C18.9445 13.2614 18.9433 13.2673 18.9327 13.3071C18.9262 13.3315 18.9179 13.359 18.9138 13.3689C18.8845 13.4403 18.8586 13.495 18.7967 13.6165C18.6996 13.8065 18.6749 13.8611 18.6584 13.9235C18.65 13.9551 18.6479 13.9751 18.6509 13.9939C18.6586 14.0422 18.7131 14.1132 18.8434 14.245C18.9494 14.3521 18.9766 14.3799 19.0041 14.4093C19.1212 14.5343 19.1668 14.6125 19.153 14.6644C19.1449 14.6946 19.1206 14.7127 19.0753 14.7224C19.0106 14.7363 18.9212 14.7301 18.7229 14.6987C18.5177 14.6658 18.4622 14.6592 18.4007 14.6586C18.3221 14.6583 18.2928 14.6715 18.2511 14.7259C18.2146 14.7738 18.1784 14.8378 18.1001 14.995C18.0411 15.1138 18.0094 15.174 17.9811 15.2216C17.9387 15.2933 17.901 15.3396 17.8663 15.3629C17.8431 15.3785 17.8163 15.382 17.7958 15.372Z" fill="white"/>
    <path d="M15.7603 18.4139C15.7422 18.4051 15.7244 18.3793 15.7115 18.3432C15.6938 18.2935 15.6826 18.2365 15.6606 18.0844C15.6424 17.9583 15.6337 17.913 15.6187 17.868C15.6011 17.8156 15.5832 17.8012 15.5107 17.7815C15.4686 17.7701 15.4302 17.7631 15.3237 17.7472C15.2792 17.7407 15.2283 17.7326 15.1907 17.7261C15.1634 17.7213 15.0798 17.6987 15.0647 17.6921C15.0169 17.6705 14.9983 17.6474 15.0044 17.6172C15.0083 17.5986 15.0205 17.5809 15.0436 17.56C15.0822 17.5253 15.1384 17.4917 15.2771 17.4202C15.4421 17.3352 15.4952 17.2991 15.5118 17.2609C15.5258 17.2288 15.5235 17.1635 15.5042 17.0353C15.4845 16.9048 15.4809 16.8813 15.4782 16.858C15.4663 16.7611 15.4671 16.7019 15.4809 16.6692C15.4937 16.6386 15.5137 16.627 15.5437 16.6331C15.5878 16.6418 15.6442 16.6862 15.7534 16.7977C15.8412 16.8876 15.8572 16.9037 15.8769 16.9225C15.9306 16.9738 15.964 16.9979 15.9925 17.0061C16.0093 17.0108 16.0153 17.0107 16.0389 17.0057C16.0808 16.9967 16.1332 16.9729 16.2592 16.9058C16.434 16.8126 16.5006 16.7861 16.5515 16.7891C16.5665 16.7899 16.5761 16.7937 16.586 16.8026C16.5984 16.8136 16.6031 16.8279 16.6028 16.8537C16.6026 16.8661 16.6018 16.8705 16.594 16.8997C16.5893 16.9176 16.5832 16.9377 16.5802 16.945C16.5587 16.9973 16.5397 17.0374 16.4942 17.1265C16.4231 17.2659 16.405 17.3059 16.3928 17.3517C16.3867 17.3749 16.3852 17.3895 16.3873 17.4033C16.393 17.4387 16.433 17.4908 16.5285 17.5875C16.6063 17.666 16.6262 17.6864 16.6464 17.708C16.7323 17.7996 16.7656 17.8569 16.7555 17.895C16.7496 17.9172 16.7318 17.9304 16.6986 17.9376C16.6512 17.9477 16.5856 17.9432 16.4402 17.9202C16.2897 17.896 16.249 17.8912 16.2039 17.8908C16.1462 17.8905 16.1247 17.9002 16.0941 17.9401C16.0674 17.9752 16.0409 18.0222 15.9834 18.1375C15.9402 18.2245 15.9169 18.2687 15.8962 18.3036C15.8651 18.3562 15.8374 18.3902 15.812 18.4072C15.7949 18.4187 15.7753 18.4212 15.7603 18.4139Z" fill="white"/>
    <path d="M17.7813 34.1838C17.7374 34.1572 17.6981 34.0878 17.6732 33.9936C17.6393 33.8636 17.6233 33.7165 17.6011 33.3259C17.5826 33.0021 17.5705 32.8853 17.5423 32.7678C17.5093 32.6309 17.467 32.5904 17.2876 32.5242C17.1832 32.4858 17.0874 32.4595 16.821 32.3954C16.7096 32.3689 16.5822 32.337 16.4882 32.3121C16.4202 32.2939 16.2131 32.2179 16.1764 32.1976C16.0598 32.1323 16.0177 32.0695 16.0398 31.9942C16.0538 31.9479 16.0885 31.9057 16.1518 31.8579C16.2573 31.7787 16.4071 31.7061 16.7747 31.5557C17.2117 31.3771 17.3544 31.2975 17.4048 31.2044C17.4474 31.1262 17.4559 30.9599 17.4351 30.6305C17.414 30.2953 17.41 30.2348 17.4082 30.1751C17.3994 29.9268 17.4145 29.777 17.4566 29.6969C17.4957 29.6222 17.5491 29.5973 17.6238 29.6195C17.7337 29.6514 17.8668 29.7765 18.1192 30.0839C18.3222 30.3314 18.3592 30.3759 18.4051 30.428C18.5298 30.5701 18.6093 30.6386 18.6799 30.6658C18.7214 30.6814 18.7366 30.6826 18.7974 30.6752C18.9057 30.6616 19.0437 30.6132 19.3782 30.4712C19.8419 30.2739 20.0165 30.2216 20.145 30.2407C20.1828 30.2461 20.2063 30.2579 20.2294 30.2825C20.2585 30.3132 20.2673 30.3506 20.2608 30.416C20.2577 30.4474 20.2545 30.4583 20.2285 30.5305C20.2125 30.5748 20.1926 30.6245 20.1834 30.6424C20.1174 30.7703 20.0604 30.8677 19.9256 31.0835C19.7145 31.4209 19.6598 31.5184 19.6189 31.6318C19.5982 31.6892 19.5912 31.7259 19.5936 31.7613C19.6002 31.8524 19.6902 31.9934 19.9112 32.26C20.091 32.4765 20.137 32.5327 20.1836 32.5919C20.3812 32.8435 20.4532 32.9963 20.4192 33.0906C20.3994 33.1455 20.3512 33.1752 20.2654 33.1858C20.1429 33.201 19.9776 33.1748 19.614 33.0838C19.2377 32.989 19.1354 32.9675 19.0212 32.9565C18.8751 32.943 18.8184 32.9627 18.7321 33.057C18.6565 33.14 18.579 33.2532 18.4079 33.5327C18.2791 33.7438 18.2105 33.8506 18.1502 33.9344C18.0597 34.0609 17.9822 34.1408 17.914 34.1783C17.8682 34.2037 17.8179 34.2057 17.7813 34.1838Z" fill="white"/>
    <path d="M31.0309 8.6667C31.0142 8.61791 31.0283 8.53922 31.0693 8.45088C31.1261 8.32933 31.2076 8.20627 31.4395 7.89268C31.6316 7.63258 31.6968 7.53526 31.75 7.42694C31.812 7.30071 31.8053 7.24225 31.7101 7.07517C31.6546 6.97811 31.598 6.89577 31.4348 6.67392C31.3663 6.58141 31.289 6.47434 31.2329 6.3943C31.1923 6.33632 31.0822 6.1438 31.067 6.1044C31.0193 5.97884 31.027 5.90342 31.092 5.86004C31.1321 5.83366 31.1857 5.82385 31.2646 5.82828C31.3959 5.83595 31.5569 5.87754 31.9343 6.00071C32.3829 6.14731 32.5429 6.17881 32.6408 6.14017C32.7233 6.1079 32.8357 5.98605 33.0297 5.72016C33.2271 5.44971 33.2626 5.40085 33.2992 5.35392C33.4508 5.15799 33.5577 5.05299 33.641 5.01901C33.7185 4.98708 33.7753 5.00267 33.8184 5.06813C33.8822 5.1638 33.9045 5.34601 33.902 5.74511C33.8998 6.0663 33.8998 6.12438 33.9017 6.19415C33.9067 6.38387 33.9239 6.48788 33.9607 6.55443C33.9826 6.59338 33.9935 6.60412 34.0448 6.6379C34.1364 6.69771 34.273 6.75012 34.6197 6.85824C35.1007 7.00779 35.2677 7.08092 35.354 7.17888C35.3794 7.20759 35.3899 7.23185 35.392 7.26566C35.3947 7.30808 35.3776 7.34236 35.3309 7.38832C35.3086 7.41032 35.2992 7.41662 35.2332 7.45508C35.1927 7.47865 35.1459 7.50382 35.1274 7.51157C34.9954 7.56669 34.8896 7.60437 34.6489 7.68223C34.2722 7.80383 34.1682 7.84306 34.0646 7.90339C34.0122 7.93394 33.9834 7.95754 33.9627 7.98625C33.9097 8.06027 33.8888 8.22663 33.8883 8.57416C33.888 8.85661 33.8875 8.92954 33.8854 9.00508C33.8765 9.32589 33.8343 9.48971 33.7482 9.53986C33.698 9.56909 33.6422 9.56059 33.5697 9.51311C33.4662 9.44529 33.3562 9.318 33.1356 9.01253C32.9078 8.6959 32.8432 8.61311 32.7627 8.53057C32.6594 8.42546 32.6034 8.40382 32.4772 8.42009C32.3664 8.43465 32.2349 8.4711 31.9258 8.57427C31.6926 8.65244 31.572 8.68981 31.4724 8.71492C31.3225 8.75312 31.2122 8.76399 31.136 8.74856C31.0848 8.73824 31.045 8.70717 31.0309 8.6667Z" fill="white"/>
    <path d="M20.5337 7.93095C20.5217 7.8961 20.5318 7.83989 20.5611 7.77679C20.6017 7.68997 20.6599 7.60207 20.8255 7.37808C20.9627 7.19229 21.0093 7.12278 21.0473 7.0454C21.0916 6.95524 21.0868 6.91349 21.0188 6.79414C20.9792 6.72481 20.9387 6.666 20.8221 6.50754C20.7732 6.44145 20.718 6.36498 20.6779 6.30781C20.649 6.26639 20.5703 6.12888 20.5594 6.10074C20.5254 6.01105 20.5309 5.95718 20.5773 5.92619C20.606 5.90735 20.6442 5.90034 20.7006 5.9035C20.7943 5.90898 20.9094 5.93869 21.1789 6.02667C21.4994 6.13138 21.6137 6.15389 21.6836 6.12628C21.7425 6.10324 21.8228 6.0162 21.9614 5.82628C22.1024 5.6331 22.1277 5.5982 22.1539 5.56467C22.2621 5.42473 22.3385 5.34973 22.398 5.32546C22.4534 5.30265 22.494 5.31379 22.5247 5.36054C22.5703 5.42887 22.5862 5.55903 22.5844 5.8441C22.5829 6.07352 22.5829 6.11501 22.5843 6.16484C22.5878 6.30036 22.6001 6.37465 22.6264 6.42219C22.642 6.45001 22.6498 6.45768 22.6864 6.4818C22.7519 6.52453 22.8494 6.56196 23.0971 6.63919C23.4406 6.74601 23.5599 6.79825 23.6216 6.86822C23.6398 6.88873 23.6472 6.90605 23.6487 6.9302C23.6506 6.9605 23.6384 6.98499 23.6051 7.01782C23.5891 7.03353 23.5825 7.03803 23.5353 7.06551C23.5064 7.08234 23.4729 7.10032 23.4597 7.10586C23.3654 7.14523 23.2899 7.17214 23.1179 7.22776C22.8489 7.31461 22.7746 7.34263 22.7006 7.38573C22.6631 7.40755 22.6426 7.42441 22.6278 7.44491C22.5899 7.49778 22.575 7.61661 22.5746 7.86485C22.5745 8.0666 22.5741 8.11869 22.5726 8.17265C22.5662 8.4018 22.5361 8.51881 22.4746 8.55464C22.4387 8.57551 22.3989 8.56944 22.3471 8.53553C22.2731 8.48709 22.1946 8.39616 22.0371 8.17797C21.8743 7.95181 21.8282 7.89267 21.7707 7.83371C21.6969 7.75863 21.6569 7.74317 21.5667 7.7548C21.4876 7.7652 21.3937 7.79123 21.1729 7.86493C21.0063 7.92077 20.9202 7.94746 20.849 7.96539C20.7419 7.99268 20.6632 8.00044 20.6087 7.98942C20.5722 7.98205 20.5437 7.95986 20.5337 7.93095Z" fill="white"/>
    <path d="M44.2978 35.9899C44.2545 35.9969 44.1908 35.9732 44.123 35.9252C44.0297 35.8586 43.9389 35.7709 43.711 35.5268C43.522 35.3245 43.4502 35.2545 43.3675 35.193C43.2711 35.1214 43.2212 35.1184 43.0673 35.1746C42.9778 35.2075 42.9005 35.2434 42.6905 35.3494C42.6029 35.394 42.5019 35.4438 42.4265 35.4797C42.372 35.5056 42.1945 35.5708 42.1593 35.5779C42.0471 35.5998 41.9852 35.5819 41.9585 35.5202C41.9424 35.4821 41.9422 35.435 41.9576 35.3685C41.9836 35.2578 42.0424 35.1269 42.2016 34.8238C42.391 34.4636 42.4412 34.332 42.4235 34.2429C42.4087 34.1679 42.3235 34.054 42.1299 33.8492C41.933 33.6409 41.8974 33.6034 41.8636 33.5652C41.7222 33.407 41.6503 33.3003 41.6342 33.2243C41.6191 33.1535 41.6406 33.1074 41.7017 33.0805C41.7913 33.0404 41.9471 33.0485 42.2806 33.1101C42.549 33.1598 42.5976 33.1684 42.6563 33.1771C42.8158 33.2011 42.9054 33.202 42.9665 33.1805C43.0024 33.1677 43.013 33.16 43.0489 33.1214C43.1126 33.0523 43.1767 32.9437 43.3188 32.6646C43.5155 32.2773 43.6016 32.1459 43.6964 32.087C43.7242 32.0696 43.7461 32.0643 43.7747 32.0676C43.8105 32.0716 43.8367 32.0912 43.8682 32.1378C43.8833 32.1601 43.8872 32.169 43.9095 32.231C43.9232 32.2689 43.9373 32.3126 43.941 32.3294C43.9675 32.4501 43.9833 32.5458 44.0126 32.7624C44.0583 33.1012 44.0756 33.1957 44.1107 33.2928C44.1284 33.3421 44.1439 33.3701 44.1648 33.392C44.2189 33.4481 44.355 33.4907 44.6457 33.5429C44.882 33.5851 44.9429 33.5964 45.0058 33.6094C45.2729 33.6648 45.4037 33.7251 45.4328 33.8059C45.4498 33.853 45.4344 33.8992 45.3839 33.9539C45.3117 34.032 45.1889 34.1067 44.9005 34.249C44.6016 34.3959 44.5227 34.4386 44.4417 34.4949C44.3384 34.5672 44.3119 34.6117 44.3068 34.7216C44.3024 34.8181 44.3134 34.9355 44.3537 35.2141C44.3844 35.4243 44.3977 35.5326 44.4039 35.6211C44.4135 35.7545 44.4062 35.85 44.382 35.9126C44.3657 35.9547 44.3338 35.984 44.2978 35.9899Z" fill="white"/>
    <path d="M19.5621 85.2025C19.8546 85.2025 20.094 85.1803 20.2801 85.1357C20.4752 85.0823 20.6303 85.0156 20.7455 84.9355C20.8608 84.8465 20.9406 84.7441 20.9849 84.6284C21.0292 84.5126 21.0514 84.3836 21.0514 84.2411C21.0514 83.9385 20.9095 83.6892 20.6259 83.4934C20.3422 83.2887 19.8546 83.0706 19.1632 82.8391C18.8618 82.7323 18.5604 82.6121 18.259 82.4786C17.9576 82.3362 17.6872 82.1626 17.4479 81.9578C17.2086 81.7442 17.0135 81.4905 16.8628 81.1968C16.7121 80.8941 16.6368 80.5291 16.6368 80.1018C16.6368 79.6746 16.7166 79.2918 16.8761 78.9535C17.0357 78.6064 17.2617 78.3126 17.5543 78.0723C17.8468 77.8319 18.2014 77.6494 18.618 77.5248C19.0347 77.3913 19.5045 77.3245 20.0275 77.3245C20.648 77.3245 21.1843 77.3913 21.6364 77.5248C22.0885 77.6583 22.4608 77.8052 22.7534 77.9654L22.155 79.6078C21.8979 79.4743 21.6098 79.3586 21.2907 79.2606C20.9804 79.1538 20.6037 79.1004 20.1605 79.1004C19.6641 79.1004 19.305 79.1716 19.0834 79.314C18.8707 79.4476 18.7643 79.6568 18.7643 79.9416C18.7643 80.1107 18.8042 80.2532 18.884 80.3689C18.9637 80.4846 19.0746 80.5914 19.2164 80.6894C19.3671 80.7784 19.5355 80.8629 19.7217 80.9431C19.9167 81.0143 20.1294 81.0899 20.3599 81.1701C20.8386 81.3481 21.2553 81.5261 21.6098 81.7041C21.9644 81.8733 22.257 82.0736 22.4874 82.305C22.7268 82.5365 22.9041 82.808 23.0193 83.1195C23.1346 83.4311 23.1922 83.8094 23.1922 84.2545C23.1922 85.118 22.8908 85.79 22.288 86.2707C21.6852 86.7425 20.7766 86.9784 19.5621 86.9784C19.1543 86.9784 18.7865 86.9517 18.4585 86.8983C18.1305 86.8538 17.8379 86.7959 17.5809 86.7247C17.3327 86.6535 17.1155 86.5778 16.9293 86.4977C16.752 86.4176 16.6013 86.3419 16.4772 86.2707L17.0623 84.615C17.3371 84.7663 17.6739 84.9043 18.0729 85.0289C18.4806 85.1447 18.977 85.2025 19.5621 85.2025Z" fill="white"/>
    <path d="M26.6365 86.7915H24.6553V79.768H26.6365V86.7915ZM26.8227 77.7384C26.8227 78.1034 26.703 78.3927 26.4636 78.6064C26.2332 78.8111 25.9584 78.9135 25.6392 78.9135C25.3201 78.9135 25.0409 78.8111 24.8015 78.6064C24.571 78.3927 24.4558 78.1034 24.4558 77.7384C24.4558 77.3735 24.571 77.0886 24.8015 76.8839C25.0409 76.6702 25.3201 76.5634 25.6392 76.5634C25.9584 76.5634 26.2332 76.6702 26.4636 76.8839C26.703 77.0886 26.8227 77.3735 26.8227 77.7384Z" fill="white"/>
    <path d="M32.714 81.5306C32.5367 81.4861 32.3284 81.4416 32.0891 81.397C31.8497 81.3436 31.5927 81.3169 31.3179 81.3169C31.1937 81.3169 31.043 81.3303 30.8658 81.357C30.6973 81.3748 30.5688 81.397 30.4801 81.4238V86.7915H28.4989V80.1419C28.8535 80.0173 29.2701 79.9016 29.7488 79.7947C30.2364 79.679 30.7771 79.6212 31.371 79.6212C31.4774 79.6212 31.606 79.6301 31.7567 79.6479C31.9073 79.6568 32.058 79.6746 32.2087 79.7013C32.3594 79.7191 32.5101 79.7458 32.6608 79.7814C32.8115 79.8081 32.9401 79.8437 33.0465 79.8882L32.714 81.5306Z" fill="white"/>
    <path d="M36.0898 86.7915H34.1085V79.768H36.0898V86.7915ZM36.2759 77.7384C36.2759 78.1034 36.1563 78.3927 35.9169 78.6064C35.6865 78.8111 35.4116 78.9135 35.0925 78.9135C34.7734 78.9135 34.4942 78.8111 34.2548 78.6064C34.0243 78.3927 33.9091 78.1034 33.9091 77.7384C33.9091 77.3735 34.0243 77.0886 34.2548 76.8839C34.4942 76.6702 34.7734 76.5634 35.0925 76.5634C35.4116 76.5634 35.6865 76.6702 35.9169 76.8839C36.1563 77.0886 36.2759 77.3735 36.2759 77.7384Z" fill="white"/>
    <path d="M43.9225 86.5511C43.5857 86.649 43.1513 86.7381 42.6194 86.8182C42.0875 86.9072 41.5291 86.9517 40.944 86.9517C40.3501 86.9517 39.8537 86.8716 39.4548 86.7113C39.0647 86.5511 38.7544 86.3286 38.524 86.0437C38.2935 85.75 38.1295 85.4028 38.032 85.0022C37.9345 84.6017 37.8857 84.161 37.8857 83.6803V79.768H39.867V83.44C39.867 84.0809 39.9512 84.5438 40.1196 84.8286C40.288 85.1135 40.6027 85.2559 41.0637 85.2559C41.2055 85.2559 41.3562 85.2515 41.5158 85.2426C41.6753 85.2248 41.8172 85.207 41.9413 85.1892V79.768H43.9225V86.5511Z" fill="white"/>
    <path d="M47.7902 85.3627C48.1536 85.3627 48.4107 85.3271 48.5614 85.2559C48.7121 85.1847 48.7874 85.0467 48.7874 84.842C48.7874 84.6818 48.6899 84.5438 48.4949 84.4281C48.2999 84.3034 48.0029 84.1655 47.604 84.0141C47.2937 83.8984 47.0101 83.7782 46.753 83.6536C46.5048 83.529 46.292 83.3821 46.1147 83.213C45.9375 83.035 45.8001 82.8258 45.7025 82.5854C45.605 82.3451 45.5563 82.0558 45.5563 81.7175C45.5563 81.0588 45.8001 80.538 46.2876 80.1553C46.7752 79.7725 47.4444 79.5811 48.2954 79.5811C48.721 79.5811 49.1287 79.6212 49.5188 79.7013C49.9088 79.7725 50.2191 79.8526 50.4496 79.9416L50.1038 81.4905C49.8734 81.4104 49.6207 81.3392 49.3459 81.2769C49.08 81.2146 48.7786 81.1834 48.4417 81.1834C47.8212 81.1834 47.5109 81.357 47.5109 81.7041C47.5109 81.7843 47.5242 81.8555 47.5508 81.9178C47.5774 81.9801 47.6306 82.0424 47.7104 82.1047C47.7902 82.1581 47.8965 82.2205 48.0295 82.2917C48.1713 82.354 48.3486 82.4252 48.5614 82.5053C48.9958 82.6655 49.3548 82.8258 49.6384 82.986C49.9221 83.1373 50.1437 83.3064 50.3033 83.4934C50.4717 83.6714 50.587 83.8717 50.649 84.0943C50.7199 84.3168 50.7554 84.5749 50.7554 84.8687C50.7554 85.563 50.4939 86.0882 49.9709 86.4443C49.4567 86.8004 48.7254 86.9784 47.7769 86.9784C47.1563 86.9784 46.6378 86.925 46.2211 86.8182C45.8134 86.7113 45.5297 86.6223 45.3701 86.5511L45.7025 84.9355C46.0394 85.069 46.3851 85.1758 46.7397 85.2559C47.0943 85.3271 47.4444 85.3627 47.7902 85.3627Z" fill="white"/>
    <path d="M13.6144 101.813V92.5598H19.7842V94.3089H15.6887V96.2451H19.3321V97.9942H15.6887V101.813H13.6144Z" fill="white"/>
    <path d="M26.8274 101.573C26.4905 101.671 26.0562 101.76 25.5243 101.84C24.9924 101.929 24.4339 101.973 23.8489 101.973C23.2549 101.973 22.7585 101.893 22.3596 101.733C21.9696 101.573 21.6593 101.35 21.4288 101.065C21.1983 100.772 21.0343 100.424 20.9368 100.024C20.8393 99.6233 20.7906 99.1826 20.7906 98.7019V94.7896H22.7718V98.4616C22.7718 99.1025 22.856 99.5654 23.0245 99.8503C23.1929 100.135 23.5076 100.278 23.9685 100.278C24.1104 100.278 24.2611 100.273 24.4206 100.264C24.5802 100.246 24.722 100.229 24.8461 100.211V94.7896H26.8274V101.573Z" fill="white"/>
    <path d="M28.6207 93.0405L30.6019 92.72V94.7896H32.9821V96.4454H30.6019V98.9156C30.6019 99.3339 30.6729 99.6678 30.8147 99.917C30.9654 100.166 31.2624 100.291 31.7056 100.291C31.9183 100.291 32.1355 100.273 32.3571 100.237C32.5876 100.193 32.7959 100.135 32.9821 100.064L33.2613 101.613C33.022 101.711 32.7561 101.795 32.4635 101.866C32.171 101.938 31.812 101.973 31.3865 101.973C30.8457 101.973 30.3981 101.902 30.0435 101.76C29.6889 101.608 29.4052 101.404 29.1925 101.145C28.9797 100.878 28.829 100.558 28.7404 100.184C28.6606 99.8102 28.6207 99.3963 28.6207 98.9423V93.0405Z" fill="white"/>
    <path d="M40.5658 101.573C40.229 101.671 39.7946 101.76 39.2627 101.84C38.7308 101.929 38.1724 101.973 37.5873 101.973C36.9934 101.973 36.497 101.893 36.098 101.733C35.708 101.573 35.3977 101.35 35.1673 101.065C34.9368 100.772 34.7728 100.424 34.6753 100.024C34.5778 99.6233 34.529 99.1826 34.529 98.7019V94.7896H36.5103V98.4616C36.5103 99.1025 36.5945 99.5654 36.7629 99.8503C36.9313 100.135 37.246 100.278 37.707 100.278C37.8488 100.278 37.9995 100.273 38.1591 100.264C38.3186 100.246 38.4605 100.229 38.5846 100.211V94.7896H40.5658V101.573Z" fill="white"/>
    <path d="M46.6408 96.5522C46.4635 96.5077 46.2551 96.4632 46.0158 96.4186C45.7765 96.3652 45.5194 96.3385 45.2446 96.3385C45.1205 96.3385 44.9698 96.3519 44.7925 96.3786C44.6241 96.3964 44.4955 96.4186 44.4069 96.4454V101.813H42.4256V95.1635C42.7802 95.0389 43.1968 94.9232 43.6755 94.8163C44.1631 94.7006 44.7038 94.6428 45.2978 94.6428C45.4041 94.6428 45.5327 94.6517 45.6834 94.6695C45.8341 94.6784 45.9848 94.6962 46.1355 94.7229C46.2862 94.7407 46.4369 94.7674 46.5876 94.803C46.7383 94.8297 46.8668 94.8653 46.9732 94.9098L46.6408 96.5522Z" fill="white"/>
    <path d="M47.573 98.3548C47.573 97.7316 47.6661 97.1886 47.8522 96.7258C48.0473 96.254 48.2999 95.8623 48.6102 95.5507C48.9204 95.2392 49.275 95.0033 49.6739 94.843C50.0817 94.6828 50.4983 94.6027 50.9238 94.6027C51.9167 94.6027 52.7012 94.9098 53.2774 95.524C53.8536 96.1293 54.1417 97.024 54.1417 98.2079C54.1417 98.3236 54.1373 98.4527 54.1284 98.5951C54.1195 98.7286 54.1107 98.8488 54.1018 98.9556H49.6074C49.6518 99.3651 49.8423 99.69 50.1792 99.9304C50.5161 100.171 50.9682 100.291 51.5355 100.291C51.8989 100.291 52.2535 100.26 52.5992 100.197C52.9538 100.126 53.2419 100.042 53.4635 99.9437L53.7295 101.559C53.6231 101.613 53.4813 101.666 53.304 101.72C53.1267 101.773 52.9272 101.818 52.7056 101.853C52.4929 101.898 52.2624 101.933 52.0142 101.96C51.766 101.987 51.5178 102 51.2696 102C50.6402 102 50.0906 101.907 49.6207 101.72C49.1598 101.533 48.7742 101.279 48.4639 100.959C48.1625 100.629 47.9365 100.242 47.7858 99.7968C47.6439 99.3518 47.573 98.8711 47.573 98.3548ZM52.2269 97.5937C52.2181 97.4245 52.187 97.2598 52.1339 97.0996C52.0895 96.9394 52.0142 96.797 51.9078 96.6723C51.8103 96.5477 51.6818 96.4454 51.5222 96.3652C51.3715 96.2851 51.1809 96.2451 50.9504 96.2451C50.7288 96.2451 50.5382 96.2851 50.3787 96.3652C50.2191 96.4364 50.0861 96.5344 49.9797 96.659C49.8734 96.7836 49.7892 96.9305 49.7271 97.0996C49.6739 97.2598 49.634 97.4245 49.6074 97.5937H52.2269Z" fill="white"/>
  </g>
</svg>
