<svg width="19" height="24" viewBox="0 0 19 24" fill="none" 
  xmlns="http://www.w3.org/2000/svg">
  <path d="M18.1183 12.75C18.6053 12.75 19 12.3303 19 11.8125V0.9375C19 0.419719 18.6053 0 18.1183 0H2.64501C1.18655 0 0 1.26169 0 2.8125V21.1875C0 22.7383 1.18655 24 2.64501 24H18.1183C18.6053 24 19 23.5803 19 23.0625C19 22.5447 18.6053 22.125 18.1183 22.125H2.64501C2.15886 22.125 1.76334 21.7044 1.76334 21.1875C1.76334 20.6706 2.15886 20.25 2.64501 20.25H18.1183C18.6053 20.25 19 19.8303 19 19.3125V16.5C19 15.9822 18.6053 15.5625 18.1183 15.5625C17.6314 15.5625 17.2367 15.9822 17.2367 16.5V18.375H5.29002V12.9831C5.29002 12.4653 4.8953 12.0456 4.40835 12.0456C3.92141 12.0456 3.52668 12.4653 3.52668 12.9831V18.375H2.64501C2.33594 18.375 2.0393 18.4322 1.76334 18.5363V2.8125C1.76334 2.29556 2.15886 1.875 2.64501 1.875H3.52668V9.28125C3.52668 9.63741 3.71651 9.96286 4.01658 10.1211C4.31666 10.2794 4.67515 10.2432 4.94185 10.0276L6.61253 8.6775L8.28321 10.0276C8.43957 10.154 8.62754 10.2188 8.81679 10.2188C8.95028 10.2188 9.08438 10.1865 9.20848 10.1211C9.50855 9.96286 9.69838 9.63741 9.69838 9.28125V1.875H17.2367V11.8125C17.2367 12.3303 17.6314 12.75 18.1183 12.75ZM7.93504 7.39125L7.14603 6.75361C6.83074 6.4988 6.39436 6.4988 6.07907 6.75361L5.29002 7.39125V1.875H7.93504V7.39125Z" fill="white"/>
</svg>
