<svg width="22" height="22" viewBox="0 0 22 22" fill="none" 
  xmlns="http://www.w3.org/2000/svg">
  <path d="M17.4023 11.043C15.9808 11.043 14.8242 12.1996 14.8242 13.6212C14.8242 15.0427 15.9808 16.1993 17.4023 16.1993H21.0547C21.0693 16.1993 21.0835 16.1978 21.0979 16.1971C21.1121 16.1978 21.1262 16.1992 21.1406 16.1992C21.6153 16.1992 22 15.8145 22 15.3399V8.59377C22 7.44969 21.4377 6.43498 20.5754 5.80983L17.6518 1.01366C17.5326 0.818069 17.3402 0.678163 17.1174 0.625054C16.8945 0.571858 16.6598 0.609886 16.4651 0.730628L14.309 2.06764L13.3367 0.422198C13.2198 0.224371 13.0286 0.0816286 12.8057 0.0257693C12.5829 -0.03009 12.3469 0.00570292 12.1505 0.124984L3.87187 5.15627H2.57812C2.11144 5.15627 1.73044 4.78236 1.71901 4.31839C1.73044 3.85441 2.11144 3.4805 2.57812 3.4805H4.16797C4.6426 3.4805 5.02734 3.09575 5.02734 2.62112C5.02734 2.14649 4.6426 1.76175 4.16797 1.76175H2.57812C1.3622 1.76175 0.34027 2.60797 0.0700391 3.74239C0.0250937 3.84663 0 3.96136 0 4.08206V18.5625C0 20.4579 1.54206 22 3.4375 22H18.5625C20.0445 22 21.3552 21.0559 21.8239 19.6509C21.9741 19.2006 21.7308 18.7139 21.2806 18.5637C20.8304 18.4135 20.3436 18.6567 20.1935 19.107C19.9592 19.8093 19.3038 20.2813 18.5625 20.2813H3.4375C2.48978 20.2813 1.71875 19.5102 1.71875 18.5625V6.7276C1.98769 6.82299 2.27691 6.87502 2.57812 6.87502H18.5625C19.5102 6.87502 20.2812 7.64605 20.2812 8.59377V11.043H17.4023ZM20.2812 14.4805H17.4023C16.9285 14.4805 16.543 14.095 16.543 13.6211C16.543 13.1472 16.9285 12.7617 17.4023 12.7617H20.2812V14.4805ZM7.18128 5.15632L12.2997 2.04568L13.2148 3.59432C13.2324 3.63664 13.2526 3.67837 13.2775 3.71859C13.2962 3.74871 13.3169 3.77676 13.3385 3.80375L14.1377 5.15632H7.18128ZM16.1341 5.15627L15.1836 3.5477L16.6349 2.64772L18.1641 5.15627H16.1341Z" fill="white"/>
</svg>
