<svg width="26" height="23" viewBox="0 0 26 23" fill="none" 
  xmlns="http://www.w3.org/2000/svg">
  <path d="M21.9883 9.4117C21.9883 8.83414 21.5336 8.36596 20.9727 8.36596H15.082C14.5211 8.36596 14.0664 8.83414 14.0664 9.4117C14.0664 9.98927 14.5211 10.4574 15.082 10.4574H20.9727C21.5336 10.4574 21.9883 9.98927 21.9883 9.4117Z" fill="white"/>
  <path d="M15.082 12.5489C14.5211 12.5489 14.0664 13.0171 14.0664 13.5947C14.0664 14.1722 14.5211 14.6404 15.082 14.6404H18.9414C19.5023 14.6404 19.957 14.1722 19.957 13.5947C19.957 13.0171 19.5023 12.5489 18.9414 12.5489H15.082Z" fill="white"/>
  <path d="M24.9844 10.4574C25.5453 10.4574 26 9.98927 26 9.4117V4.18298C26 1.87648 24.1776 0 21.9375 0H4.0625C1.82244 0 0 1.87648 0 4.18298V14.6404C0 16.9469 1.82244 18.8234 4.0625 18.8234H11.9844V20.9085H8.42969C7.86876 20.9085 7.41406 21.3767 7.41406 21.9543C7.41406 22.5318 7.86876 23 8.42969 23H17.5703C18.1312 23 18.5859 22.5318 18.5859 21.9543C18.5859 21.3767 18.1312 20.9085 17.5703 20.9085H14.0156V18.8234H21.9375C24.1776 18.8234 26 16.9469 26 14.6404C26 14.0629 25.5453 13.5947 24.9844 13.5947C24.4234 13.5947 23.9688 14.0629 23.9688 14.6404C23.9688 15.7937 23.0575 16.7319 21.9375 16.7319H4.0625C2.94247 16.7319 2.03125 15.7937 2.03125 14.6404V4.18298C2.03125 3.02973 2.94247 2.09149 4.0625 2.09149H21.9375C23.0575 2.09149 23.9688 3.02973 23.9688 4.18298V9.4117C23.9688 9.98927 24.4234 10.4574 24.9844 10.4574Z" fill="white"/>
  <path d="M10.918 8.36596H5.02734C4.46641 8.36596 4.01172 8.83414 4.01172 9.4117C4.01172 9.98927 4.46641 10.4574 5.02734 10.4574H10.918C11.4789 10.4574 11.9336 9.98927 11.9336 9.4117C11.9336 8.83414 11.4789 8.36596 10.918 8.36596Z" fill="white"/>
  <path d="M20.9727 4.18298H15.082C14.5211 4.18298 14.0664 4.65116 14.0664 5.22872C14.0664 5.80629 14.5211 6.27447 15.082 6.27447H20.9727C21.5336 6.27447 21.9883 5.80629 21.9883 5.22872C21.9883 4.65116 21.5336 4.18298 20.9727 4.18298Z" fill="white"/>
  <path d="M10.918 4.18298H5.02734C4.46641 4.18298 4.01172 4.65116 4.01172 5.22872C4.01172 5.80629 4.46641 6.27447 5.02734 6.27447H10.918C11.4789 6.27447 11.9336 5.80629 11.9336 5.22872C11.9336 4.65116 11.4789 4.18298 10.918 4.18298Z" fill="white"/>
  <path d="M10.918 12.5489H5.02734C4.46641 12.5489 4.01172 13.0171 4.01172 13.5947C4.01172 14.1722 4.46641 14.6404 5.02734 14.6404H10.918C11.4789 14.6404 11.9336 14.1722 11.9336 13.5947C11.9336 13.0171 11.4789 12.5489 10.918 12.5489Z" fill="white"/>
</svg>
